<svg width="24" height="22" viewBox="0 0 24 22" fill="none" xmlns="http://www.w3.org/2000/svg">
<path d="M5.58512 1.02184L5.5851 1.02184C4.8018 1.09525 3.71761 1.52652 3.08736 2.01812L3.08733 2.01815C2.02859 2.8439 1.3744 3.89474 1.08209 5.2685L5.58512 1.02184ZM5.58512 1.02184C6.6939 0.917906 7.95065 1.18705 9.04652 1.79033L9.04654 1.79034C9.6904 2.14478 10.5337 2.78334 11.1105 3.35973C11.1105 3.35974 11.1105 3.35976 11.1105 3.35977L11.2958 3.54495L11.9929 4.24168M5.58512 1.02184L11.9929 4.24168M11.9948 20.5614L7.82394 16.2459L7.1452 16.9018L7.82393 16.2458C6.48058 14.8559 5.2264 13.5493 4.28821 12.5642C3.81892 12.0714 3.42993 11.6604 3.14883 11.3601C3.00804 11.2097 2.89617 11.0891 2.81553 11.0008C2.76171 10.9418 2.73151 10.9077 2.71746 10.8918C2.70671 10.8797 2.70541 10.8782 2.7102 10.8844C1.75638 9.64317 1.24858 8.49227 1.04279 7.18971L11.9948 20.5614ZM11.9948 20.5614L16.1001 16.3183C17.4257 14.9482 18.6704 13.6539 19.6077 12.6726C20.0765 12.1818 20.4674 11.7704 20.7527 11.4673C20.8955 11.3156 21.0103 11.1927 21.0947 11.1012C21.1369 11.0554 21.17 11.0191 21.1943 10.992C21.2172 10.9664 21.2259 10.9563 21.2259 10.9563C21.2259 10.9563 21.2256 10.9567 21.2249 10.9575C22.7559 9.07909 23.2945 6.93279 22.8477 5.07085C22.597 4.02609 22.142 3.22347 21.3611 2.45677L21.361 2.45676C20.6244 1.73357 19.7149 1.26759 18.6155 1.07118M11.9948 20.5614L17.0343 1.07654C17.1579 1.05837 17.4856 1.04241 17.8676 1.04233C18.0477 1.04229 18.2214 1.04578 18.3651 1.05233C18.437 1.05561 18.4973 1.05948 18.5447 1.06357C18.5911 1.06757 18.6124 1.07074 18.6152 1.07115C18.6155 1.07119 18.6156 1.0712 18.6155 1.07118M18.6155 1.07118L18.7889 0.100041L18.6154 1.07117C18.6154 1.07118 18.6155 1.07118 18.6155 1.07118ZM11.9929 4.24168L12.6997 3.55482M11.9929 4.24168L12.6997 3.55482M12.6997 3.55482L13.0501 3.21423C13.0501 3.21423 13.0501 3.21422 13.0501 3.21421M12.6997 3.55482L13.0501 3.21421M1.00225 6.21098C0.993479 6.62073 1.01106 6.98875 1.04279 7.18967L1.00225 6.21098ZM1.00225 6.21098C1.01109 5.79839 1.04451 5.44516 1.08209 5.26851L1.00225 6.21098ZM13.0501 3.21421C14.2683 2.03046 15.7491 1.26544 17.0342 1.07654L13.0501 3.21421Z" fill="#FF3E3E" stroke="#282828" stroke-width="2"/>
</svg>
