<svg width="24" height="22" fill="none" xmlns="http://www.w3.org/2000/svg">
    <path d="M5.585 1.022c-.783.073-1.867.505-2.498.996-1.058.826-1.713 1.877-2.005 3.25l4.503-4.246Zm0 0c1.109-.104 2.366.165 3.462.768.643.355 1.487.993 2.063 1.57l.186.185.697.697m-6.408-3.22 6.408 3.22m.002 16.32-4.171-4.316-.679.656.679-.656a729.068 729.068 0 0 1-3.536-3.682 205.805 205.805 0 0 1-1.472-1.563 8.845 8.845 0 0 1-.099-.11l-.007-.007C1.756 9.644 1.25 8.492 1.043 7.19L11.995 20.56Zm0 0 4.105-4.244c1.326-1.37 2.57-2.664 3.508-3.645a241.38 241.38 0 0 0 1.487-1.572l.1-.109.03-.036v.002c1.53-1.879 2.07-4.025 1.623-5.887-.251-1.045-.706-1.848-1.487-2.614-.737-.723-1.646-1.19-2.745-1.386m-6.621 19.49 5.04-19.484a11.243 11.243 0 0 1 1.51-.013l.07.007m0 0L18.79.1l-.174.971Zm-6.622 3.17.707-.686m-.707.687.707-.687m0 0 .35-.34m-.35.34.35-.34M1.002 6.21c-.009.41.01.778.04.979l-.04-.979Zm0 0c.01-.413.043-.766.08-.942l-.08.942ZM13.05 3.214c1.218-1.184 2.7-1.949 3.984-2.137L13.05 3.214Z" stroke="#282828" stroke-width="2"/>
</svg>
