<svg width="20" height="16" viewBox="0 0 20 16" fill="none" xmlns="http://www.w3.org/2000/svg">
<path d="M13.413 4.94444V4.44444V0.888888C13.413 0.663943 13.237 0.5 13.0434 0.5H10.4348C10.2927 0.5 10.1574 0.586592 10.0971 0.731243L10.0927 0.741653L10.0879 0.751857L7.45655 6.33415V14.3113L10.2985 15.4732C10.2987 15.4733 10.299 15.4734 10.2993 15.4735C10.3435 15.4913 10.3892 15.5 10.4348 15.5H17.3912C17.5605 15.5 17.7199 15.3745 17.7546 15.1827L13.413 4.94444ZM13.413 4.94444H13.913H19.1303C19.235 4.94444 19.339 4.9923 19.4109 5.07981C19.4831 5.16855 19.5145 5.28751 19.4937 5.40503L17.7547 15.182L13.413 4.94444ZM0.869556 5.83335H4.34778C4.54132 5.83335 4.71734 5.99729 4.71734 6.22224V15.1111C4.71734 15.3361 4.54133 15.5 4.34778 15.5H0.869556C0.67601 15.5 0.5 15.3361 0.5 15.1111V6.22224C0.5 5.99729 0.676011 5.83335 0.869556 5.83335Z" stroke="#282828"/>
</svg>
