<svg width="300" height="300" viewBox="0 0 300 300" fill="none" xmlns="http://www.w3.org/2000/svg">
<path d="M56.0697 56.0981C64.1627 47.994 77.284 47.994 85.3769 56.0981L243.636 214.574C251.729 222.679 251.729 235.818 243.636 243.922C235.543 252.026 222.421 252.026 214.329 243.922L56.0697 85.4456C47.9768 77.3415 47.9768 64.2022 56.0697 56.0981Z" fill="black"/>
<path d="M56.3643 243.902C48.2713 235.798 48.2713 222.658 56.3643 214.554L214.623 56.0781C222.716 47.974 235.837 47.974 243.93 56.0781C252.023 64.1821 252.023 77.3214 243.93 85.4255L85.6715 243.902C77.5785 252.006 64.4572 252.006 56.3643 243.902Z" fill="black"/>
</svg>
